<?xml version="1.0" encoding="utf-8"?>
<!-- Generator: Adobe Illustrator 16.0.0, SVG Export Plug-In . SVG Version: 6.00 Build 0)  -->
<!DOCTYPE svg PUBLIC "-//W3C//DTD SVG 1.1//EN" "http://www.w3.org/Graphics/SVG/1.1/DTD/svg11.dtd">
<svg version="1.1"
	 id="svg2" xmlns:inkscape="http://www.inkscape.org/namespaces/inkscape" xmlns:sodipodi="http://sodipodi.sourceforge.net/DTD/sodipodi-0.dtd" xmlns:rdf="http://www.w3.org/1999/02/22-rdf-syntax-ns#" xmlns:svg="http://www.w3.org/2000/svg" xmlns:cc="http://creativecommons.org/ns#" xmlns:dc="http://purl.org/dc/elements/1.1/" sodipodi:docname="linkedin.svg" sodipodi:version="0.32" inkscape:version="0.47 r22583" inkscape:output_extension="org.inkscape.output.svg.inkscape"
	 xmlns="http://www.w3.org/2000/svg" xmlns:xlink="http://www.w3.org/1999/xlink" x="0px" y="0px" width="164.773px"
	 height="157.501px" viewBox="44.198 50.259 164.773 157.501" enable-background="new 44.198 50.259 164.773 157.501"
	 xml:space="preserve">
<sodipodi:namedview  inkscape:cy="94.798647" inkscape:zoom="0.24748737" inkscape:cx="138.80354" borderopacity="1.0" id="base" bordercolor="#666666" pagecolor="#ffffff" showgrid="false" inkscape:window-y="281" inkscape:window-x="1" inkscape:window-height="674" inkscape:window-width="853" inkscape:window-maximized="0" inkscape:pageshadow="2" inkscape:pageopacity="0.0" inkscape:current-layer="layer1" inkscape:document-units="px">
	</sodipodi:namedview>
<g id="layer1_1_" transform="translate(-200.55198,-393.96227)" inkscape:label="Layer 1" inkscape:groupmode="layer">
	<g id="g3019" transform="matrix(1.018827,0,0,-1.018827,170.5996,498.03288)">
		<path id="path28_1_" inkscape:connector-curvature="0" fill="#FFFFFF" d="M109.495-101.774V2.533H74.828v-104.307H109.495z
			 M92.168,16.775c12.081,0,19.612,8.01,19.612,18.021c-0.224,10.233-7.531,18.021-19.385,18.021
			c-11.864,0-19.615-7.788-19.615-18.021c0-10.011,7.521-18.021,19.159-18.021H92.168L92.168,16.775z"/>
		<path id="path30_1_" inkscape:connector-curvature="0" fill="#FFFFFF" d="M128.681-101.774h34.672v58.249
			c0,3.119,0.225,6.235,1.143,8.462c2.5,6.232,8.211,12.681,17.782,12.681c12.547,0,17.562-9.568,17.562-23.588v-55.804h34.668
			v59.81c0,32.037-17.1,46.946-39.915,46.946c-18.701,0-26.913-10.45-31.476-17.571h0.234V2.533H128.68
			C129.141-7.253,128.681-101.774,128.681-101.774L128.681-101.774z"/>
	</g>
</g>
</svg>
