<?xml version="1.0" encoding="utf-8"?>
<!-- Generator: Adobe Illustrator 18.0.0, SVG Export Plug-In . SVG Version: 6.00 Build 0)  -->
<!DOCTYPE svg PUBLIC "-//W3C//DTD SVG 1.1//EN" "http://www.w3.org/Graphics/SVG/1.1/DTD/svg11.dtd">
<svg version="1.1" id="Layer_1" xmlns="http://www.w3.org/2000/svg" xmlns:xlink="http://www.w3.org/1999/xlink" x="0px" y="0px"
	 viewBox="0 0 26 26" enable-background="new 0 0 26 26" xml:space="preserve">
<path fill="#FFFFFF" d="M0,13c0-1.8,0.3-3.4,1-5C2.4,4.7,4.7,2.4,7.9,1c1.6-0.7,3.3-1,5.1-1s3.5,0.3,5.1,1c3.2,1.4,5.5,3.6,6.9,6.9
	c0.7,1.6,1,3.3,1,5s-0.3,3.4-1,5c-1.4,3.3-3.7,5.6-6.9,6.9c-1.6,0.7-3.3,1-5.1,1s-3.5-0.3-5.1-1C4.7,23.6,2.4,21.3,1,18
	C0.3,16.4,0,14.7,0,13z M2,13c0,2.4,0.7,4.6,2.2,6.6c1.4,1.9,3.3,3.2,5.7,4v-2.1c0-1,0.3-1.8,1-2.3c-0.3,0-0.8-0.1-1.2-0.2
	c-0.9-0.2-1.6-0.4-2.3-0.8c-1.6-1-2.4-2.7-2.4-5.2c0-1.3,0.4-2.4,1.3-3.3C6,8.7,6,7.6,6.5,6.4H7c0.2,0,0.4,0,0.7,0.1
	c0.7,0.2,1.4,0.6,2.3,1.1C11,7.4,12,7.2,13.1,7.2s2.1,0.1,3.2,0.4c0.7-0.5,1.3-0.8,1.9-1c0.6-0.2,1-0.3,1.2-0.3l0.3,0
	c0.5,1.2,0.5,2.3,0.1,3.3c0.9,0.9,1.3,2,1.3,3.3c0,1.9-0.5,3.4-1.4,4.4c-0.5,0.6-1.2,1-2.1,1.3c-0.7,0.3-1.5,0.4-2.4,0.5
	c0.7,0.5,1.1,1.3,1.1,2.3v2.1c2.2-0.8,4.1-2.2,5.5-4.1c1.4-1.9,2.1-4.1,2.1-6.5c0-1.5-0.3-2.9-0.9-4.3c-0.6-1.3-1.3-2.5-2.3-3.5
	c-1-1-2.1-1.7-3.5-2.3C15.9,2.3,14.4,2,13,2c-1.4,0-2.8,0.3-4.3,0.9C7.4,3.5,6.3,4.2,5.2,5.2c-1,1-1.8,2.2-2.3,3.5
	C2.3,10.1,2,11.5,2,13z"/>
</svg>
